<svg width="96" height="96" viewBox="0 0 96 96" fill="none" xmlns="http://www.w3.org/2000/svg">
<path d="M48.0001 38.4758C55.8635 38.4758 62.238 32.1013 62.238 24.2379C62.238 16.3745 55.8635 10 48.0001 10C40.1367 10 33.7622 16.3745 33.7622 24.2379C33.7622 32.1013 40.1367 38.4758 48.0001 38.4758Z" stroke="white" stroke-width="4" stroke-linecap="square"/>
<path d="M48.0001 85.9355C55.8635 85.9355 62.238 79.561 62.238 71.6976C62.238 63.8342 55.8635 57.4597 48.0001 57.4597C40.1367 57.4597 33.7622 63.8342 33.7622 71.6976C33.7622 79.561 40.1367 85.9355 48.0001 85.9355Z" stroke="white" stroke-width="4" stroke-linecap="square"/>
<path d="M56.2203 43.222C60.1519 50.0319 68.8597 52.3651 75.6696 48.4334C82.4795 44.5017 84.8127 35.794 80.881 28.9841C76.9493 22.1742 68.2416 19.841 61.4317 23.7726C54.6218 27.7043 52.2886 36.4121 56.2203 43.222Z" stroke="white" stroke-width="4" stroke-linecap="square"/>
<path d="M15.1191 66.9522C19.0508 73.7621 27.7585 76.0953 34.5684 72.1637C41.3783 68.232 43.7115 59.5242 39.7799 52.7143C35.8482 45.9044 27.1404 43.5712 20.3305 47.5029C13.5206 51.4346 11.1874 60.1423 15.1191 66.9522Z" stroke="white" stroke-width="4" stroke-linecap="square"/>
<path d="M39.7797 43.2215C43.7114 36.4116 41.3782 27.7038 34.5683 23.7721C27.7584 19.8404 19.0506 22.1737 15.119 28.9836C11.1873 35.7935 13.5205 44.5012 20.3304 48.4329C27.1403 52.3646 35.8481 50.0314 39.7797 43.2215Z" stroke="white" stroke-width="4" stroke-linecap="square"/>
<path d="M80.881 66.9511C84.8127 60.1412 82.4795 51.4334 75.6696 47.5018C68.8597 43.5701 60.1519 45.9033 56.2202 52.7132C52.2886 59.5231 54.6218 68.2308 61.4317 72.1625C68.2416 76.0942 76.9493 73.761 80.881 66.9511Z" stroke="white" stroke-width="4" stroke-linecap="square"/>
</svg>
